<?xml version="1.0" encoding="UTF-8" standalone="no"?>
<!-- Created with Inkscape (http://www.inkscape.org/) -->

<svg
   xmlns:dc="http://purl.org/dc/elements/1.1/"
   xmlns:cc="http://creativecommons.org/ns#"
   xmlns:rdf="http://www.w3.org/1999/02/22-rdf-syntax-ns#"
   xmlns:svg="http://www.w3.org/2000/svg"
   xmlns="http://www.w3.org/2000/svg"
   xmlns:sodipodi="http://sodipodi.sourceforge.net/DTD/sodipodi-0.dtd"
   xmlns:inkscape="http://www.inkscape.org/namespaces/inkscape"
   width="210mm"
   height="297mm"
   viewBox="0 0 210 297"
   version="1.1"
   id="svg8"
   inkscape:version="0.92.2 (5c3e80d, 2017-08-06)"
   sodipodi:docname="Dibujos.svg">
  <defs
     id="defs2">
    <inkscape:path-effect
       effect="spiro"
       id="path-effect890"
       is_visible="true" />
    <inkscape:path-effect
       effect="spiro"
       id="path-effect869"
       is_visible="true" />
    <inkscape:path-effect
       effect="spiro"
       id="path-effect865"
       is_visible="true" />
    <inkscape:path-effect
       effect="spiro"
       id="path-effect861"
       is_visible="true" />
  </defs>
  <sodipodi:namedview
     id="base"
     pagecolor="#ffffff"
     bordercolor="#666666"
     borderopacity="1.0"
     inkscape:pageopacity="0.0"
     inkscape:pageshadow="2"
     inkscape:zoom="1.42"
     inkscape:cx="397.8198"
     inkscape:cy="164.04683"
     inkscape:document-units="mm"
     inkscape:current-layer="layer1"
     showgrid="false"
     inkscape:window-width="1920"
     inkscape:window-height="1001"
     inkscape:window-x="-9"
     inkscape:window-y="-9"
     inkscape:window-maximized="1" />
  <metadata
     id="metadata5">
    <rdf:RDF>
      <cc:Work
         rdf:about="">
        <dc:format>image/svg+xml</dc:format>
        <dc:type
           rdf:resource="http://purl.org/dc/dcmitype/StillImage" />
        <dc:title></dc:title>
      </cc:Work>
    </rdf:RDF>
  </metadata>
  <g
     inkscape:label="Capa 1"
     inkscape:groupmode="layer"
     id="layer1">
    <rect
       style="opacity:1;fill:#ffffff;fill-opacity:1;stroke:#000000;stroke-width:0.26499999;stroke-miterlimit:4;stroke-dasharray:none;stroke-dashoffset:0;stroke-opacity:1"
       id="rect815"
       width="139.37207"
       height="72.667252"
       x="34.284039"
       y="68.563965" />
    <rect
       style="opacity:1;fill:#999999;fill-opacity:1;stroke:#000000;stroke-width:0.26624873;stroke-miterlimit:4;stroke-dasharray:none;stroke-dashoffset:0;stroke-opacity:1"
       id="rect819"
       width="139.37207"
       height="36.519947"
       x="34.284039"
       y="104.71127" />
    <rect
       style="opacity:1;fill:#ffffff;fill-opacity:1;stroke:#000000;stroke-width:0.26499999;stroke-miterlimit:4;stroke-dasharray:none;stroke-dashoffset:0;stroke-opacity:1"
       id="rect815-3"
       width="139.37207"
       height="72.667252"
       x="33.911377"
       y="151.47885" />
    <rect
       style="opacity:1;fill:#999999;fill-opacity:1;stroke:#000000;stroke-width:0.23118362;stroke-miterlimit:4;stroke-dasharray:none;stroke-dashoffset:0;stroke-opacity:1"
       id="rect819-1"
       width="139.39615"
       height="27.529226"
       x="33.899338"
       y="196.62892" />
    <rect
       style="opacity:1;fill:#ffffff;fill-opacity:1;stroke:#000000;stroke-width:0.26503342;stroke-miterlimit:4;stroke-dasharray:none;stroke-dashoffset:0;stroke-opacity:1"
       id="rect815-3-5"
       width="139.38411"
       height="72.679306"
       x="-37.71143"
       y="271.22351"
       inkscape:transform-center-y="26.456679"
       transform="rotate(-15)"
       inkscape:transform-center-x="-7.0890454" />
    <path
       style="fill:none;stroke:#000000;stroke-width:0.26458332px;stroke-linecap:butt;stroke-linejoin:miter;stroke-opacity:1"
       d="m 38.942195,291.03756 c 3.162796,2.97497 6.59775,5.66048 10.247944,8.01203 7.422471,4.78175 15.745451,8.17071 24.408744,9.87529 7.770956,1.529 15.746403,1.70541 23.663439,1.49061 10.155968,-0.27554 20.286958,-1.18613 30.371188,-2.42224 8.23151,-1.00901 16.43712,-2.23527 24.59507,-3.72652 8.05289,-1.47204 16.05671,-3.20176 24.03609,-5.03082 2.92221,-0.66984 5.84137,-1.35305 8.75733,-2.04959"
       id="path867"
       inkscape:connector-curvature="0"
       inkscape:path-effect="#path-effect869"
       inkscape:original-d="m 38.942195,291.03756 c 3.354136,2.60829 6.832227,5.34109 10.247944,8.01203 3.415718,2.67095 16.272762,6.58326 24.408744,9.87529 8.135985,3.29202 15.775892,0.99348 23.663439,1.49061 7.887548,0.49712 20.247728,-1.6151 30.371188,-2.42224 10.12346,-0.80716 16.39698,-2.48462 24.59507,-3.72652 8.19809,-1.24193 16.02432,-3.35415 24.03609,-5.03082 8.01176,-1.67666 5.83849,-1.36665 8.75733,-2.04959" />
    <path
       style="opacity:1;fill:#999999;fill-opacity:1;stroke:#000000;stroke-width:0.70533431;stroke-miterlimit:4;stroke-dasharray:none;stroke-dashoffset:0;stroke-opacity:1"
       d="m 199.32061,1290.8096 c -0.86983,-1.5105 -49.96874,-186.2162 -49.59878,-186.5862 0.23346,-0.2334 2.57882,1.4745 5.21192,3.7953 35.2391,31.0606 82.25481,53.4378 129.08324,61.4376 39.4736,6.7433 93.15219,6.3931 166.90141,-1.0891 73.91714,-7.4992 148.12349,-20.4591 233.41116,-40.7644 7.33741,-1.7469 13.51524,-3.0017 13.72853,-2.7884 0.78783,0.7879 8.4165,30.2119 7.93595,30.6092 -0.274,0.2266 -113.94888,30.781 -252.61085,67.8989 -138.66198,37.1178 -252.47675,67.6166 -252.92173,67.7751 -0.44498,0.1585 -0.95836,0.029 -1.14085,-0.288 z"
       id="path871"
       inkscape:connector-curvature="0"
       transform="scale(0.26458333)" />
    <rect
       style="opacity:1;fill:#ffffff;fill-opacity:1;stroke:#000000;stroke-width:0.26503342;stroke-miterlimit:4;stroke-dasharray:none;stroke-dashoffset:0;stroke-opacity:1"
       id="rect815-3-5-5"
       width="139.38411"
       height="72.679306"
       x="-68.29335"
       y="380.30731"
       inkscape:transform-center-y="26.456679"
       transform="rotate(-15)"
       inkscape:transform-center-x="-7.0890454" />
    <path
       style="fill:none;stroke:#000000;stroke-width:0.26458332px;stroke-linecap:butt;stroke-linejoin:miter;stroke-opacity:1"
       d="m 39.314847,409.72739 c 0.383972,-3.09128 1.856533,-6.0364 4.099179,-8.19835 2.969772,-2.86291 7.277506,-4.27498 11.365902,-3.72652 1.577228,0.21158 3.142318,0.71261 4.424981,1.65452 1.282662,0.94191 2.259944,2.35772 2.469093,3.93527 0.07521,0.56728 0.05108,1.15116 -0.105941,1.70144 -0.157019,0.55029 -0.450059,1.06594 -0.867677,1.45717 -0.417617,0.39124 -0.962095,0.653 -1.5324,0.70013 -0.570304,0.0471 -1.16225,-0.12832 -1.59316,-0.50486 -0.298576,-0.26091 -0.512942,-0.60665 -0.671584,-0.97004 -0.158642,-0.36338 -0.265119,-0.74689 -0.377886,-1.12702 -0.112767,-0.38014 -0.233279,-0.76063 -0.417398,-1.1118 -0.184119,-0.35117 -0.436433,-0.67448 -0.769048,-0.89032 -0.495403,-0.32148 -1.137039,-0.3749 -1.705134,-0.21353 -0.568095,0.16136 -1.065849,0.52121 -1.462412,0.95883 -0.659143,0.72738 -1.056225,1.67459 -1.180117,2.64835 -0.123892,0.97375 0.01759,1.97203 0.342812,2.8982 0.650451,1.85233 1.997222,3.3764 3.445873,4.7014 2.855862,2.6121 6.234922,4.6484 9.875293,5.96244 4.701052,1.6969 9.74053,2.17677 14.719777,2.60857 6.01244,0.5214 12.038957,0.99299 18.07365,0.93163 9.25502,-0.0941 18.44993,-1.44047 27.57629,-2.98122 9.22516,-1.55743 18.41572,-3.31633 27.57629,-5.21714 10.22457,-2.12159 20.41244,-4.42007 30.55751,-6.89407"
       id="path888"
       inkscape:connector-curvature="0"
       inkscape:path-effect="#path-effect890"
       inkscape:original-d="m 39.314847,409.72739 c 1.366658,-2.73304 0.31028,-6.95592 4.099179,-8.19835 3.788899,-1.24243 7.577533,-2.48461 11.365902,-3.72652 3.788369,-1.24191 4.596314,3.72626 6.894074,5.58979 2.297761,1.86353 -2.732521,2.23565 -4.099178,3.35388 -1.366657,1.11822 -1.490346,-2.73305 -2.235916,-4.09918 -0.745569,-1.36613 -2.111433,0.4966 -3.167546,0.7453 -1.056114,0.2487 1.739309,6.8317 2.608568,10.24795 0.869258,3.41624 6.583793,3.97469 9.875293,5.96244 3.2915,1.98774 9.813449,1.73878 14.719777,2.60857 4.906328,0.86978 12.049365,0.62082 18.07365,0.93163 6.02429,0.31081 18.38446,-1.98775 27.57629,-2.98122 9.19183,-0.99348 18.38446,-3.47836 27.57629,-5.21714 9.19183,-1.73878 20.37194,-4.59631 30.55751,-6.89407" />
    <path
       style="opacity:1;fill:#999999;fill-opacity:1;stroke:#000000;stroke-width:0.70533431;stroke-miterlimit:4;stroke-dasharray:none;stroke-dashoffset:0;stroke-opacity:1"
       d="m 194.23527,1718.6516 c -0.19633,-0.5244 -10.46695,-38.7052 -22.8236,-84.8464 l -22.46664,-83.8929 1.36319,-5.8958 c 5.25707,-22.7365 24.19015,-38.6311 47.44116,-39.8275 18.27167,-0.9402 32.05286,7.2219 34.53519,20.4538 0.96389,5.138 -2.18474,11.5361 -6.481,13.1695 -5.07812,1.9307 -8.9067,-1.0101 -11.50566,-8.8377 -2.16727,-6.5274 -4.44404,-8.8116 -8.78285,-8.8116 -3.94898,0 -6.49176,1.229 -9.40294,4.5446 -5.18101,5.9009 -5.60879,15.8088 -1.08081,25.0329 5.08744,10.3637 22.24417,24.7386 38.99885,32.6753 15.1194,7.1622 30.92036,10.8101 58.08542,13.41 72.37519,6.9269 106.46507,5.544 182.74648,-7.4136 62.15092,-10.5573 136.78053,-25.9978 207.02048,-42.8315 4.82957,-1.1574 8.84161,-2.0418 8.91563,-1.9653 0.79417,0.821 10.56742,39.6515 10.05899,39.9657 -0.37149,0.2296 -114.03962,30.7857 -252.59583,67.9025 -138.55622,37.1168 -252.31385,67.6282 -252.79474,67.8032 -0.48089,0.175 -1.03498,-0.1109 -1.23132,-0.6352 z"
       id="path892"
       inkscape:connector-curvature="0"
       transform="scale(0.26458333)" />
  </g>
</svg>
